<mxfile host="app.diagrams.net" modified="2024-01-14T12:11:34.821Z" agent="Mozilla/5.0 (Windows NT 10.0; Win64; x64) AppleWebKit/537.36 (KHTML, like Gecko) Chrome/120.0.0.0 Safari/537.36" version="22.1.18" etag="4ELNsXYnM710ToKpQ4X5" type="github">
  <diagram name="페이지-1" id="dj_1Iiu9Eg_qNTD2Fi76">
    <mxGraphModel>
      <root>
        <mxCell id="0" />
        <mxCell id="1" parent="0" />
      </root>
    </mxGraphModel>
  </diagram>
</mxfile>
